<svg version="1.1" xmlns="http://www.w3.org/2000/svg" xmlns:xlink="http://www.w3.org/1999/xlink" width="196" height="196" viewBox="0,0,196,196"><g transform="translate(-142.39059,-82.036)"><g data-paper-data="{&quot;isPaintingLayer&quot;:true}" fill-rule="nonzero" stroke-linecap="butt" stroke-linejoin="miter" stroke-miterlimit="10" stroke-dasharray="" stroke-dashoffset="0" style="mix-blend-mode: normal"><text transform="translate(279.14058,343.27069)" font-size="16" xml:space="preserve" fill="#ffffff" fill-rule="nonzero" stroke="none" stroke-width="1" stroke-linecap="butt" stroke-linejoin="miter" stroke-miterlimit="10" stroke-dasharray="" stroke-dashoffset="0" font-family="&quot;Helvetica Neue&quot;, Helvetica, sans-serif" font-weight="500" text-anchor="start" style="mix-blend-mode: normal"><tspan x="0" dy="0"> </tspan></text><g stroke-width="1"><path d="M142.9393,143.81125c13.54235,-30.42375 55.34805,-49.61444 87.24671,-40.05012l45.44099,-20.85944c2.00771,-0.92163 4.38241,-0.04118 5.30403,1.96653l16.68755,36.3528c0.92163,2.00771 0.04118,4.38241 -1.96653,5.30403l-89.06434,40.8845c-1.81764,0.83438 -2.30927,2.16038 -2.8009,3.48639l-1.96652,5.30403c-0.49163,1.32601 -0.98326,2.65202 -2.8009,3.4864l-10.90583,5.00626c-1.81764,0.83438 -3.14365,0.34274 -4.46966,-0.14889l-5.30403,-1.96652c-1.32601,-0.49163 -2.65202,-0.98327 -4.46966,-0.14889l-7.27056,3.33751c-2.00771,0.92163 -4.38241,0.04119 -5.30403,-1.96652z" fill="#ffbf00" stroke="#cc9900"/><path d="M169.86385,204.779c-0.92163,-2.00771 -0.04119,-4.38241 1.96652,-5.30403l7.27056,-3.33751c1.81764,-0.83438 3.14365,-0.34275 4.46966,0.14888l5.30403,1.96653c1.32601,0.49163 2.65201,0.98326 4.46965,0.14888l10.90584,-5.00626c1.81764,-0.83438 2.30927,-2.16039 2.8009,-3.4864l1.96653,-5.30403c0.49163,-1.32601 0.98326,-2.65201 2.8009,-3.48639l80.88497,-37.1298c2.00771,-0.92163 4.38241,-0.04119 5.30403,1.96652l16.68755,36.35279c0.92163,2.00771 0.04118,4.38241 -1.96652,5.30403l-80.88497,37.1298c-1.81764,0.83438 -2.30927,2.16038 -2.8009,3.48639l-1.96653,5.30403c-0.49163,1.32601 -0.98326,2.65201 -2.8009,3.48639l-10.90584,5.00627c-1.81764,0.83438 -3.14364,0.34274 -4.46965,-0.14889l-5.30403,-1.96652c-1.32601,-0.49163 -2.65202,-0.98327 -4.46966,-0.14889l-7.27056,3.33751c-2.00771,0.92163 -4.38241,0.04119 -5.30403,-1.96652z" fill="#0fbd8c" stroke="#0b8e69"/></g><g fill="#252525"><path d="M282.51385,234.41223c0,0 0.14599,-109.60416 0.16236,-122.13489c0.00292,-2.23276 3.79947,-5.80836 5.97403,-5.8087c2.78856,-0.00041 7.71496,-0.00153 12.1747,-0.00219c2.19615,-0.00034 4.9987,3.44067 4.9805,5.52677c-0.10631,12.17586 -1.09008,122.71378 -1.09008,122.71378z" stroke="#141414" stroke-width="1"/><path d="M258.80584,201.3055c17.91471,-0.29119 56.4621,-0.91771 66.71982,-1.08445c4.90354,-0.07969 6.85294,3.75184 3.99829,7.2723c-5.1619,6.36585 -22.42059,27.64994 -31.11661,38.37419c-3.09059,3.81146 -7.15948,3.90253 -10.32888,0.23047c-8.86664,-10.27287 -26.41716,-30.60679 -31.84465,-36.89506c-3.12888,-3.62512 -3.08647,-7.80549 2.57201,-7.89745z" stroke="#141414" stroke-width="1"/><path d="M283.75001,211.4818v-26.21168h20.25097v26.21168z" stroke="#000000" stroke-width="0"/></g><path d="M243.63889,269.52688c0,-4.01828 0,-9.52679 0,-11.7c0,-1.77459 1.70069,-3.97562 3.80813,-3.97562c8.94762,0 70.99149,0 87.1,0c2.42948,0 3.81408,2.07264 3.81408,3.77562c0,2.35002 0,8.78923 0,12.9c0,2.12082 -1.90331,3.62188 -4.21409,3.62188c-9.20526,0 -69.45967,0 -86.2,0c-2.73468,0 -4.30813,-1.99171 -4.30813,-4.62188z" fill="#252525" stroke="#141414" stroke-width="1"/></g></g></svg>